<svg xmlns="http://www.w3.org/2000/svg" viewBox="0 0 48 48"><defs><style>.a{fill:#00734b;}.b{fill:#00ff87;}</style></defs><path class="a" d="M45.092,29.888,24,42.069,17.477,38.3,37.047,27l-3.262-1.884L19.216,33.53a11.067,11.067,0,0,1-10,0L2.908,29.888C.15,28.3.15,25.705,2.908,24.112L24,11.931,30.523,15.7,10.953,27l3.262,1.884L28.784,20.47a11.067,11.067,0,0,1,10,0l6.306,3.642C47.85,25.7,47.85,28.3,45.092,29.888Z"/><path class="a" d="M45.092,29.788,24,41.969,17.477,38.2l19.57-11.3-3.262-1.884L19.216,33.43a11.067,11.067,0,0,1-10,0L2.908,29.788C.15,28.2.15,25.605,2.908,24.012L24,11.831,30.523,15.6,10.953,26.9l3.262,1.884L28.784,20.37a11.067,11.067,0,0,1,10,0l6.306,3.642C47.85,25.6,47.85,28.2,45.092,29.788Z"/><path class="a" d="M45.092,29.688,24,41.869,17.477,38.1l19.57-11.3-3.262-1.884L19.216,33.33a11.067,11.067,0,0,1-10,0L2.908,29.688C.15,28.1.15,25.505,2.908,23.912L24,11.731,30.523,15.5,10.953,26.8l3.262,1.884L28.784,20.27a11.067,11.067,0,0,1,10,0l6.306,3.642C47.85,25.5,47.85,28.1,45.092,29.688Z"/><path class="a" d="M45.092,29.588,24,41.769,17.477,38l19.57-11.3-3.262-1.884L19.216,33.23a11.067,11.067,0,0,1-10,0L2.908,29.588C.15,28,.15,25.405,2.908,23.812L24,11.631,30.523,15.4,10.953,26.7l3.262,1.884L28.784,20.17a11.067,11.067,0,0,1,10,0l6.306,3.642C47.85,25.4,47.85,28,45.092,29.588Z"/><path class="a" d="M45.092,29.488,24,41.669,17.477,37.9l19.57-11.3-3.262-1.884L19.216,33.13a11.067,11.067,0,0,1-10,0L2.908,29.488C.15,27.9.15,25.305,2.908,23.712L24,11.531,30.523,15.3,10.953,26.6l3.262,1.884L28.784,20.07a11.067,11.067,0,0,1,10,0l6.306,3.642C47.85,25.3,47.85,27.9,45.092,29.488Z"/><path class="a" d="M45.092,29.388,24,41.569,17.477,37.8l19.57-11.3-3.262-1.884L19.216,33.03a11.067,11.067,0,0,1-10,0L2.908,29.388C.15,27.8.15,25.205,2.908,23.612L24,11.431,30.523,15.2,10.953,26.5l3.262,1.884L28.784,19.97a11.067,11.067,0,0,1,10,0l6.306,3.642C47.85,25.2,47.85,27.8,45.092,29.388Z"/><path class="a" d="M45.092,29.288,24,41.469,17.477,37.7l19.57-11.3-3.262-1.884L19.216,32.93a11.067,11.067,0,0,1-10,0L2.908,29.288C.15,27.7.15,25.105,2.908,23.512L24,11.331,30.523,15.1,10.953,26.4l3.262,1.884L28.784,19.87a11.067,11.067,0,0,1,10,0l6.306,3.642C47.85,25.1,47.85,27.7,45.092,29.288Z"/><path class="a" d="M45.092,29.188,24,41.369,17.477,37.6l19.57-11.3-3.262-1.884L19.216,32.83a11.067,11.067,0,0,1-10,0L2.908,29.188C.15,27.6.15,25.005,2.908,23.412L24,11.231,30.523,15,10.953,26.3l3.262,1.884L28.784,19.77a11.067,11.067,0,0,1,10,0l6.306,3.642C47.85,25,47.85,27.6,45.092,29.188Z"/><path class="a" d="M45.092,29.088,24,41.269,17.477,37.5l19.57-11.3-3.262-1.884L19.216,32.73a11.067,11.067,0,0,1-10,0L2.908,29.088C.15,27.5.15,24.905,2.908,23.312L24,11.131,30.523,14.9,10.953,26.2l3.262,1.884L28.784,19.67a11.067,11.067,0,0,1,10,0l6.306,3.642C47.85,24.9,47.85,27.5,45.092,29.088Z"/><path class="a" d="M45.092,28.988,24,41.169,17.477,37.4l19.57-11.3-3.262-1.884L19.216,32.63a11.067,11.067,0,0,1-10,0L2.908,28.988C.15,27.4.15,24.805,2.908,23.212L24,11.031,30.523,14.8,10.953,26.1l3.262,1.884L28.784,19.57a11.067,11.067,0,0,1,10,0l6.306,3.642C47.85,24.8,47.85,27.4,45.092,28.988Z"/><path class="a" d="M45.092,28.888,24,41.069,17.477,37.3,37.047,26l-3.262-1.884L19.216,32.53a11.067,11.067,0,0,1-10,0L2.908,28.888C.15,27.3.15,24.705,2.908,23.112L24,10.931,30.523,14.7,10.953,26l3.262,1.884L28.784,19.47a11.067,11.067,0,0,1,10,0l6.306,3.642C47.85,24.7,47.85,27.3,45.092,28.888Z"/><path class="a" d="M45.092,28.788,24,40.969,17.477,37.2l19.57-11.3-3.262-1.884L19.216,32.43a11.067,11.067,0,0,1-10,0L2.908,28.788C.15,27.2.15,24.605,2.908,23.012L24,10.831,30.523,14.6,10.953,25.9l3.262,1.884L28.784,19.37a11.067,11.067,0,0,1,10,0l6.306,3.642C47.85,24.6,47.85,27.2,45.092,28.788Z"/><path class="a" d="M45.092,28.688,24,40.869,17.477,37.1l19.57-11.3-3.262-1.884L19.216,32.33a11.067,11.067,0,0,1-10,0L2.908,28.688C.15,27.1.15,24.505,2.908,22.912L24,10.731,30.523,14.5,10.953,25.8l3.262,1.884L28.784,19.27a11.067,11.067,0,0,1,10,0l6.306,3.642C47.85,24.5,47.85,27.1,45.092,28.688Z"/><path class="a" d="M45.092,28.588,24,40.769,17.477,37l19.57-11.3-3.262-1.884L19.216,32.23a11.067,11.067,0,0,1-10,0L2.908,28.588C.15,27,.15,24.405,2.908,22.812L24,10.631,30.523,14.4,10.953,25.7l3.262,1.884L28.784,19.17a11.067,11.067,0,0,1,10,0l6.306,3.642C47.85,24.4,47.85,27,45.092,28.588Z"/><path class="a" d="M45.092,28.488,24,40.669,17.477,36.9l19.57-11.3-3.262-1.884L19.216,32.13a11.067,11.067,0,0,1-10,0L2.908,28.488C.15,26.9.15,24.305,2.908,22.712L24,10.531,30.523,14.3,10.953,25.6l3.262,1.884L28.784,19.07a11.067,11.067,0,0,1,10,0l6.306,3.642C47.85,24.3,47.85,26.9,45.092,28.488Z"/><path class="a" d="M45.092,28.388,24,40.569,17.477,36.8l19.57-11.3-3.262-1.884L19.216,32.03a11.067,11.067,0,0,1-10,0L2.908,28.388C.15,26.8.15,24.205,2.908,22.612L24,10.431,30.523,14.2,10.953,25.5l3.262,1.884L28.784,18.97a11.067,11.067,0,0,1,10,0l6.306,3.642C47.85,24.2,47.85,26.8,45.092,28.388Z"/><path class="a" d="M45.092,28.288,24,40.469,17.477,36.7l19.57-11.3-3.262-1.884L19.216,31.93a11.067,11.067,0,0,1-10,0L2.908,28.288C.15,26.7.15,24.105,2.908,22.512L24,10.331,30.523,14.1,10.953,25.4l3.262,1.884L28.784,18.87a11.067,11.067,0,0,1,10,0l6.306,3.642C47.85,24.1,47.85,26.7,45.092,28.288Z"/><path class="a" d="M45.092,28.188,24,40.369,17.477,36.6l19.57-11.3-3.262-1.884L19.216,31.83a11.067,11.067,0,0,1-10,0L2.908,28.188C.15,26.6.15,24.005,2.908,22.412L24,10.231,30.523,14,10.953,25.3l3.262,1.884L28.784,18.77a11.067,11.067,0,0,1,10,0l6.306,3.642C47.85,24,47.85,26.6,45.092,28.188Z"/><path class="a" d="M45.092,28.088,24,40.269,17.477,36.5l19.57-11.3-3.262-1.884L19.216,31.73a11.067,11.067,0,0,1-10,0L2.908,28.088C.15,26.5.15,23.905,2.908,22.312L24,10.131,30.523,13.9,10.953,25.2l3.262,1.884L28.784,18.67a11.067,11.067,0,0,1,10,0l6.306,3.642C47.85,23.9,47.85,26.5,45.092,28.088Z"/><path class="a" d="M45.092,27.988,24,40.169,17.477,36.4l19.57-11.3-3.262-1.884L19.216,31.63a11.067,11.067,0,0,1-10,0L2.908,27.988C.15,26.4.15,23.805,2.908,22.212L24,10.031,30.523,13.8,10.953,25.1l3.262,1.884L28.784,18.57a11.067,11.067,0,0,1,10,0l6.306,3.642C47.85,23.8,47.85,26.4,45.092,27.988Z"/><path class="a" d="M45.092,27.888,24,40.069,17.477,36.3,37.047,25l-3.262-1.884L19.216,31.53a11.067,11.067,0,0,1-10,0L2.908,27.888C.15,26.3.15,23.705,2.908,22.112L24,9.931,30.523,13.7,10.953,25l3.262,1.884L28.784,18.47a11.067,11.067,0,0,1,10,0l6.306,3.642C47.85,23.7,47.85,26.3,45.092,27.888Z"/><path class="a" d="M45.092,27.788,24,39.969,17.477,36.2l19.57-11.3-3.262-1.884L19.216,31.43a11.067,11.067,0,0,1-10,0L2.908,27.788C.15,26.2.15,23.605,2.908,22.012L24,9.831,30.523,13.6,10.953,24.9l3.262,1.884L28.784,18.37a11.067,11.067,0,0,1,10,0l6.306,3.642C47.85,23.6,47.85,26.2,45.092,27.788Z"/><path class="a" d="M45.092,27.688,24,39.869,17.477,36.1l19.57-11.3-3.262-1.884L19.216,31.33a11.067,11.067,0,0,1-10,0L2.908,27.688C.15,26.1.15,23.505,2.908,21.912L24,9.731,30.523,13.5,10.953,24.8l3.262,1.884L28.784,18.27a11.067,11.067,0,0,1,10,0l6.306,3.642C47.85,23.5,47.85,26.1,45.092,27.688Z"/><path class="a" d="M45.092,27.588,24,39.769,17.477,36l19.57-11.3-3.262-1.884L19.216,31.23a11.067,11.067,0,0,1-10,0L2.908,27.588C.15,26,.15,23.405,2.908,21.812L24,9.631,30.523,13.4,10.953,24.7l3.262,1.884L28.784,18.17a11.067,11.067,0,0,1,10,0l6.306,3.642C47.85,23.4,47.85,26,45.092,27.588Z"/><path class="a" d="M45.092,27.488,24,39.669,17.477,35.9l19.57-11.3-3.262-1.884L19.216,31.13a11.067,11.067,0,0,1-10,0L2.908,27.488C.15,25.9.15,23.305,2.908,21.712L24,9.531,30.523,13.3,10.953,24.6l3.262,1.884L28.784,18.07a11.067,11.067,0,0,1,10,0l6.306,3.642C47.85,23.3,47.85,25.9,45.092,27.488Z"/><path class="a" d="M45.092,27.388,24,39.569,17.477,35.8l19.57-11.3-3.262-1.884L19.216,31.03a11.067,11.067,0,0,1-10,0L2.908,27.388C.15,25.8.15,23.205,2.908,21.612L24,9.431,30.523,13.2,10.953,24.5l3.262,1.884L28.784,17.97a11.067,11.067,0,0,1,10,0l6.306,3.642C47.85,23.2,47.85,25.8,45.092,27.388Z"/><path class="a" d="M45.092,27.288,24,39.469,17.477,35.7l19.57-11.3-3.262-1.884L19.216,30.93a11.067,11.067,0,0,1-10,0L2.908,27.288C.15,25.7.15,23.105,2.908,21.512L24,9.331,30.523,13.1,10.953,24.4l3.262,1.884L28.784,17.87a11.067,11.067,0,0,1,10,0l6.306,3.642C47.85,23.1,47.85,25.7,45.092,27.288Z"/><path class="a" d="M45.092,27.188,24,39.369,17.477,35.6l19.57-11.3-3.262-1.884L19.216,30.83a11.067,11.067,0,0,1-10,0L2.908,27.188C.15,25.6.15,23.005,2.908,21.412L24,9.231,30.523,13,10.953,24.3l3.262,1.884L28.784,17.77a11.067,11.067,0,0,1,10,0l6.306,3.642C47.85,23,47.85,25.6,45.092,27.188Z"/><path class="a" d="M45.092,27.088,24,39.269,17.477,35.5l19.57-11.3-3.262-1.884L19.216,30.73a11.067,11.067,0,0,1-10,0L2.908,27.088C.15,25.5.15,22.905,2.908,21.312L24,9.131,30.523,12.9,10.953,24.2l3.262,1.884L28.784,17.67a11.067,11.067,0,0,1,10,0l6.306,3.642C47.85,22.9,47.85,25.5,45.092,27.088Z"/><path class="a" d="M45.092,26.988,24,39.169,17.477,35.4l19.57-11.3-3.262-1.884L19.216,30.63a11.067,11.067,0,0,1-10,0L2.908,26.988C.15,25.4.15,22.805,2.908,21.212L24,9.031,30.523,12.8,10.953,24.1l3.262,1.884L28.784,17.57a11.067,11.067,0,0,1,10,0l6.306,3.642C47.85,22.8,47.85,25.4,45.092,26.988Z"/><path class="a" d="M45.092,26.888,24,39.069,17.477,35.3,37.047,24l-3.262-1.884L19.216,30.53a11.067,11.067,0,0,1-10,0L2.908,26.888C.15,25.3.15,22.705,2.908,21.112L24,8.931,30.523,12.7,10.953,24l3.262,1.884L28.784,17.47a11.067,11.067,0,0,1,10,0l6.306,3.642C47.85,22.7,47.85,25.3,45.092,26.888Z"/><path class="a" d="M45.092,26.788,24,38.969,17.477,35.2l19.57-11.3-3.262-1.884L19.216,30.43a11.067,11.067,0,0,1-10,0L2.908,26.788C.15,25.2.15,22.605,2.908,21.012L24,8.831,30.523,12.6,10.953,23.9l3.262,1.884L28.784,17.37a11.067,11.067,0,0,1,10,0l6.306,3.642C47.85,22.6,47.85,25.2,45.092,26.788Z"/><path class="a" d="M45.092,26.688,24,38.869,17.477,35.1l19.57-11.3-3.262-1.884L19.216,30.33a11.067,11.067,0,0,1-10,0L2.908,26.688C.15,25.1.15,22.505,2.908,20.912L24,8.731,30.523,12.5,10.953,23.8l3.262,1.884L28.784,17.27a11.067,11.067,0,0,1,10,0l6.306,3.642C47.85,22.5,47.85,25.1,45.092,26.688Z"/><path class="a" d="M45.092,26.588,24,38.769,17.477,35l19.57-11.3-3.262-1.884L19.216,30.23a11.067,11.067,0,0,1-10,0L2.908,26.588C.15,25,.15,22.405,2.908,20.812L24,8.631,30.523,12.4,10.953,23.7l3.262,1.884L28.784,17.17a11.067,11.067,0,0,1,10,0l6.306,3.642C47.85,22.4,47.85,25,45.092,26.588Z"/><path class="a" d="M45.092,26.488,24,38.669,17.477,34.9l19.57-11.3-3.262-1.884L19.216,30.13a11.067,11.067,0,0,1-10,0L2.908,26.488C.15,24.9.15,22.305,2.908,20.712L24,8.531,30.523,12.3,10.953,23.6l3.262,1.884L28.784,17.07a11.067,11.067,0,0,1,10,0l6.306,3.642C47.85,22.3,47.85,24.9,45.092,26.488Z"/><path class="a" d="M45.092,26.388,24,38.569,17.477,34.8l19.57-11.3-3.262-1.884L19.216,30.03a11.067,11.067,0,0,1-10,0L2.908,26.388C.15,24.8.15,22.205,2.908,20.612L24,8.431,30.523,12.2,10.953,23.5l3.262,1.884L28.784,16.97a11.067,11.067,0,0,1,10,0l6.306,3.642C47.85,22.2,47.85,24.8,45.092,26.388Z"/><path class="a" d="M45.092,26.288,24,38.469,17.477,34.7l19.57-11.3-3.262-1.884L19.216,29.93a11.067,11.067,0,0,1-10,0L2.908,26.288C.15,24.7.15,22.105,2.908,20.512L24,8.331,30.523,12.1,10.953,23.4l3.262,1.884L28.784,16.87a11.067,11.067,0,0,1,10,0l6.306,3.642C47.85,22.1,47.85,24.7,45.092,26.288Z"/><path class="a" d="M45.092,26.188,24,38.369,17.477,34.6l19.57-11.3-3.262-1.884L19.216,29.83a11.067,11.067,0,0,1-10,0L2.908,26.188C.15,24.6.15,22.005,2.908,20.412L24,8.231,30.523,12,10.953,23.3l3.262,1.884L28.784,16.77a11.067,11.067,0,0,1,10,0l6.306,3.642C47.85,22,47.85,24.6,45.092,26.188Z"/><path class="a" d="M45.092,26.088,24,38.269,17.477,34.5l19.57-11.3-3.262-1.884L19.216,29.73a11.067,11.067,0,0,1-10,0L2.908,26.088C.15,24.5.15,21.905,2.908,20.312L24,8.131,30.523,11.9,10.953,23.2l3.262,1.884L28.784,16.67a11.067,11.067,0,0,1,10,0l6.306,3.642C47.85,21.9,47.85,24.5,45.092,26.088Z"/><path class="a" d="M45.092,25.988,24,38.169,17.477,34.4l19.57-11.3-3.262-1.884L19.216,29.63a11.067,11.067,0,0,1-10,0L2.908,25.988C.15,24.4.15,21.805,2.908,20.212L24,8.031,30.523,11.8,10.953,23.1l3.262,1.884L28.784,16.57a11.067,11.067,0,0,1,10,0l6.306,3.642C47.85,21.8,47.85,24.4,45.092,25.988Z"/><path class="a" d="M45.092,25.888,24,38.069,17.477,34.3,37.047,23l-3.262-1.884L19.216,29.53a11.067,11.067,0,0,1-10,0L2.908,25.888C.15,24.3.15,21.705,2.908,20.112L24,7.931,30.523,11.7,10.953,23l3.262,1.884L28.784,16.47a11.067,11.067,0,0,1,10,0l6.306,3.642C47.85,21.7,47.85,24.3,45.092,25.888Z"/><path class="a" d="M45.092,25.788,24,37.969,17.477,34.2l19.57-11.3-3.262-1.884L19.216,29.43a11.067,11.067,0,0,1-10,0L2.908,25.788C.15,24.2.15,21.605,2.908,20.012L24,7.831,30.523,11.6,10.953,22.9l3.262,1.884L28.784,16.37a11.067,11.067,0,0,1,10,0l6.306,3.642C47.85,21.6,47.85,24.2,45.092,25.788Z"/><path class="a" d="M45.092,25.688,24,37.869,17.477,34.1l19.57-11.3-3.262-1.884L19.216,29.33a11.067,11.067,0,0,1-10,0L2.908,25.688C.15,24.1.15,21.505,2.908,19.912L24,7.731,30.523,11.5,10.953,22.8l3.262,1.884L28.784,16.27a11.067,11.067,0,0,1,10,0l6.306,3.642C47.85,21.5,47.85,24.1,45.092,25.688Z"/><path class="a" d="M45.092,25.588,24,37.769,17.477,34l19.57-11.3-3.262-1.884L19.216,29.23a11.067,11.067,0,0,1-10,0L2.908,25.588C.15,24,.15,21.405,2.908,19.812L24,7.631,30.523,11.4,10.953,22.7l3.262,1.884L28.784,16.17a11.067,11.067,0,0,1,10,0l6.306,3.642C47.85,21.4,47.85,24,45.092,25.588Z"/><path class="a" d="M45.092,25.488,24,37.669,17.477,33.9l19.57-11.3-3.262-1.884L19.216,29.13a11.067,11.067,0,0,1-10,0L2.908,25.488C.15,23.9.15,21.305,2.908,19.712L24,7.531,30.523,11.3,10.953,22.6l3.262,1.884L28.784,16.07a11.067,11.067,0,0,1,10,0l6.306,3.642C47.85,21.3,47.85,23.9,45.092,25.488Z"/><path class="a" d="M45.092,25.388,24,37.569,17.477,33.8l19.57-11.3-3.262-1.884L19.216,29.03a11.067,11.067,0,0,1-10,0L2.908,25.388C.15,23.8.15,21.205,2.908,19.612L24,7.431,30.523,11.2,10.953,22.5l3.262,1.884L28.784,15.97a11.067,11.067,0,0,1,10,0l6.306,3.642C47.85,21.2,47.85,23.8,45.092,25.388Z"/><path class="a" d="M45.092,25.288,24,37.469,17.477,33.7l19.57-11.3-3.262-1.884L19.216,28.93a11.067,11.067,0,0,1-10,0L2.908,25.288C.15,23.7.15,21.105,2.908,19.512L24,7.331,30.523,11.1,10.953,22.4l3.262,1.884L28.784,15.87a11.067,11.067,0,0,1,10,0l6.306,3.642C47.85,21.1,47.85,23.7,45.092,25.288Z"/><path class="a" d="M45.092,25.188,24,37.369,17.477,33.6l19.57-11.3-3.262-1.884L19.216,28.83a11.067,11.067,0,0,1-10,0L2.908,25.188C.15,23.6.15,21.005,2.908,19.412L24,7.231,30.523,11,10.953,22.3l3.262,1.884L28.784,15.77a11.067,11.067,0,0,1,10,0l6.306,3.642C47.85,21,47.85,23.6,45.092,25.188Z"/><path class="a" d="M45.092,25.088,24,37.269,17.477,33.5l19.57-11.3-3.262-1.884L19.216,28.73a11.067,11.067,0,0,1-10,0L2.908,25.088C.15,23.5.15,20.905,2.908,19.312L24,7.131,30.523,10.9,10.953,22.2l3.262,1.884L28.784,15.67a11.067,11.067,0,0,1,10,0l6.306,3.642C47.85,20.9,47.85,23.5,45.092,25.088Z"/><path class="a" d="M45.092,24.988,24,37.169,17.477,33.4l19.57-11.3-3.262-1.884L19.216,28.63a11.067,11.067,0,0,1-10,0L2.908,24.988C.15,23.4.15,20.805,2.908,19.212L24,7.031,30.523,10.8,10.953,22.1l3.262,1.884L28.784,15.57a11.067,11.067,0,0,1,10,0l6.306,3.642C47.85,20.8,47.85,23.4,45.092,24.988Z"/><path class="a" d="M45.092,24.888,24,37.069,17.477,33.3,37.047,22l-3.262-1.884L19.216,28.53a11.067,11.067,0,0,1-10,0L2.908,24.888C.15,23.3.15,20.705,2.908,19.112L24,6.931,30.523,10.7,10.953,22l3.262,1.884L28.784,15.47a11.067,11.067,0,0,1,10,0l6.306,3.642C47.85,20.7,47.85,23.3,45.092,24.888Z"/><path class="b" d="M45.092,24.888,24,37.069,17.477,33.3,37.047,22l-3.262-1.884L19.216,28.53a11.067,11.067,0,0,1-10,0L2.908,24.888C.15,23.3.15,20.705,2.908,19.112L24,6.931,30.523,10.7,10.953,22l3.262,1.884L28.784,15.47a11.067,11.067,0,0,1,10,0l6.306,3.642C47.85,20.7,47.85,23.3,45.092,24.888Z"/></svg>