<svg xmlns="http://www.w3.org/2000/svg" viewBox="0 0 48 48"><defs><style>.a{fill:#0a1e3c;}.b{fill:#00734b;}.c{fill:#00ff87;}</style></defs><rect class="a" width="48" height="48" rx="6.505"/><polygon class="a" points="46 24 24 36.705 2 24 24 11.295 46 24"/><path class="b" d="M41.783,29.435,24,39.705l-5.5-3.176L35,27l-2.75-1.588L19.967,32.506a9.337,9.337,0,0,1-8.434,0L6.217,29.435c-2.325-1.343-2.326-3.527,0-4.87L24,14.3l5.5,3.176L13,27l2.75,1.588L28.033,21.5a9.331,9.331,0,0,1,8.434,0l5.316,3.07C44.108,25.908,44.109,28.092,41.783,29.435Z"/><path class="b" d="M41.783,29.335,24,39.6l-5.5-3.176L35,26.9l-2.75-1.588L19.967,32.406a9.337,9.337,0,0,1-8.434,0L6.217,29.335c-2.325-1.343-2.326-3.527,0-4.87L24,14.2l5.5,3.176L13,26.9l2.75,1.588L28.033,21.4a9.331,9.331,0,0,1,8.434,0l5.316,3.07C44.108,25.808,44.109,27.992,41.783,29.335Z"/><path class="b" d="M41.783,29.235,24,39.505l-5.5-3.176L35,26.8l-2.75-1.588L19.967,32.306a9.337,9.337,0,0,1-8.434,0L6.217,29.235c-2.325-1.343-2.326-3.527,0-4.87L24,14.1l5.5,3.176L13,26.8l2.75,1.588L28.033,21.3a9.331,9.331,0,0,1,8.434,0l5.316,3.07C44.108,25.708,44.109,27.892,41.783,29.235Z"/><path class="b" d="M41.783,29.135,24,39.405l-5.5-3.176L35,26.7l-2.75-1.588L19.967,32.206a9.337,9.337,0,0,1-8.434,0L6.217,29.135c-2.325-1.343-2.326-3.527,0-4.87L24,14l5.5,3.176L13,26.7l2.75,1.588L28.033,21.2a9.331,9.331,0,0,1,8.434,0l5.316,3.07C44.108,25.608,44.109,27.792,41.783,29.135Z"/><path class="b" d="M41.783,29.035,24,39.305l-5.5-3.176L35,26.6l-2.75-1.588L19.967,32.106a9.337,9.337,0,0,1-8.434,0L6.217,29.035c-2.325-1.343-2.326-3.527,0-4.87L24,13.9l5.5,3.176L13,26.6l2.75,1.588L28.033,21.1a9.331,9.331,0,0,1,8.434,0l5.316,3.07C44.108,25.508,44.109,27.692,41.783,29.035Z"/><path class="b" d="M41.783,28.935,24,39.205l-5.5-3.176L35,26.5l-2.75-1.588L19.967,32.006a9.337,9.337,0,0,1-8.434,0L6.217,28.935c-2.325-1.343-2.326-3.527,0-4.87L24,13.8l5.5,3.176L13,26.5l2.75,1.588L28.033,21a9.331,9.331,0,0,1,8.434,0l5.316,3.07C44.108,25.408,44.109,27.592,41.783,28.935Z"/><path class="b" d="M41.783,28.835,24,39.1l-5.5-3.176L35,26.4l-2.75-1.588L19.967,31.906a9.337,9.337,0,0,1-8.434,0L6.217,28.835c-2.325-1.343-2.326-3.527,0-4.87L24,13.7l5.5,3.176L13,26.4l2.75,1.588L28.033,20.9a9.331,9.331,0,0,1,8.434,0l5.316,3.07C44.108,25.308,44.109,27.492,41.783,28.835Z"/><path class="b" d="M41.783,28.735,24,39.005l-5.5-3.176L35,26.3l-2.75-1.588L19.967,31.806a9.337,9.337,0,0,1-8.434,0L6.217,28.735c-2.325-1.343-2.326-3.527,0-4.87L24,13.6l5.5,3.176L13,26.3l2.75,1.588L28.033,20.8a9.331,9.331,0,0,1,8.434,0l5.316,3.07C44.108,25.208,44.109,27.392,41.783,28.735Z"/><path class="b" d="M41.783,28.635,24,38.905l-5.5-3.176L35,26.2l-2.75-1.588L19.967,31.706a9.337,9.337,0,0,1-8.434,0L6.217,28.635c-2.325-1.343-2.326-3.527,0-4.87L24,13.5l5.5,3.176L13,26.2l2.75,1.588L28.033,20.7a9.331,9.331,0,0,1,8.434,0l5.316,3.07C44.108,25.108,44.109,27.292,41.783,28.635Z"/><path class="b" d="M41.783,28.535,24,38.805l-5.5-3.176L35,26.1l-2.75-1.588L19.967,31.606a9.337,9.337,0,0,1-8.434,0L6.217,28.535c-2.325-1.343-2.326-3.527,0-4.87L24,13.4l5.5,3.176L13,26.1l2.75,1.588L28.033,20.6a9.331,9.331,0,0,1,8.434,0l5.316,3.07C44.108,25.008,44.109,27.192,41.783,28.535Z"/><path class="b" d="M41.783,28.435,24,38.705l-5.5-3.176L35,26l-2.75-1.588L19.967,31.506a9.337,9.337,0,0,1-8.434,0L6.217,28.435c-2.325-1.343-2.326-3.527,0-4.87L24,13.3l5.5,3.176L13,26l2.75,1.588L28.033,20.5a9.331,9.331,0,0,1,8.434,0l5.316,3.07C44.108,24.908,44.109,27.092,41.783,28.435Z"/><path class="b" d="M41.783,28.335,24,38.6l-5.5-3.176L35,25.9l-2.75-1.588L19.967,31.406a9.337,9.337,0,0,1-8.434,0L6.217,28.335c-2.325-1.343-2.326-3.527,0-4.87L24,13.2l5.5,3.176L13,25.9l2.75,1.588L28.033,20.4a9.331,9.331,0,0,1,8.434,0l5.316,3.07C44.108,24.808,44.109,26.992,41.783,28.335Z"/><path class="b" d="M41.783,28.235,24,38.505l-5.5-3.176L35,25.8l-2.75-1.588L19.967,31.306a9.337,9.337,0,0,1-8.434,0L6.217,28.235c-2.325-1.343-2.326-3.527,0-4.87L24,13.1l5.5,3.176L13,25.8l2.75,1.588L28.033,20.3a9.331,9.331,0,0,1,8.434,0l5.316,3.07C44.108,24.708,44.109,26.892,41.783,28.235Z"/><path class="b" d="M41.783,28.135,24,38.405l-5.5-3.176L35,25.7l-2.75-1.588L19.967,31.206a9.337,9.337,0,0,1-8.434,0L6.217,28.135c-2.325-1.343-2.326-3.527,0-4.87L24,13l5.5,3.176L13,25.7l2.75,1.588L28.033,20.2a9.331,9.331,0,0,1,8.434,0l5.316,3.07C44.108,24.608,44.109,26.792,41.783,28.135Z"/><path class="b" d="M41.783,28.035,24,38.305l-5.5-3.176L35,25.6l-2.75-1.588L19.967,31.106a9.337,9.337,0,0,1-8.434,0L6.217,28.035c-2.325-1.343-2.326-3.527,0-4.87L24,12.9l5.5,3.176L13,25.6l2.75,1.588L28.033,20.1a9.331,9.331,0,0,1,8.434,0l5.316,3.07C44.108,24.508,44.109,26.692,41.783,28.035Z"/><path class="b" d="M41.783,27.935,24,38.205l-5.5-3.176L35,25.5l-2.75-1.588L19.967,31.006a9.337,9.337,0,0,1-8.434,0L6.217,27.935c-2.325-1.343-2.326-3.527,0-4.87L24,12.8l5.5,3.176L13,25.5l2.75,1.588L28.033,20a9.331,9.331,0,0,1,8.434,0l5.316,3.07C44.108,24.408,44.109,26.592,41.783,27.935Z"/><path class="b" d="M41.783,27.835,24,38.1l-5.5-3.176L35,25.4l-2.75-1.588L19.967,30.906a9.337,9.337,0,0,1-8.434,0L6.217,27.835c-2.325-1.343-2.326-3.527,0-4.87L24,12.7l5.5,3.176L13,25.4l2.75,1.588L28.033,19.9a9.331,9.331,0,0,1,8.434,0l5.316,3.07C44.108,24.308,44.109,26.492,41.783,27.835Z"/><path class="b" d="M41.783,27.735,24,38.005l-5.5-3.176L35,25.3l-2.75-1.588L19.967,30.806a9.337,9.337,0,0,1-8.434,0L6.217,27.735c-2.325-1.343-2.326-3.527,0-4.87L24,12.6l5.5,3.176L13,25.3l2.75,1.588L28.033,19.8a9.331,9.331,0,0,1,8.434,0l5.316,3.07C44.108,24.208,44.109,26.392,41.783,27.735Z"/><path class="b" d="M41.783,27.635,24,37.905l-5.5-3.176L35,25.2l-2.75-1.588L19.967,30.706a9.337,9.337,0,0,1-8.434,0L6.217,27.635c-2.325-1.343-2.326-3.527,0-4.87L24,12.5l5.5,3.176L13,25.2l2.75,1.588L28.033,19.7a9.331,9.331,0,0,1,8.434,0l5.316,3.07C44.108,24.108,44.109,26.292,41.783,27.635Z"/><path class="b" d="M41.783,27.535,24,37.805l-5.5-3.176L35,25.1l-2.75-1.588L19.967,30.606a9.337,9.337,0,0,1-8.434,0L6.217,27.535c-2.325-1.343-2.326-3.527,0-4.87L24,12.4l5.5,3.176L13,25.1l2.75,1.588L28.033,19.6a9.331,9.331,0,0,1,8.434,0l5.316,3.07C44.108,24.008,44.109,26.192,41.783,27.535Z"/><path class="b" d="M41.783,27.435,24,37.705l-5.5-3.176L35,25l-2.75-1.588L19.967,30.506a9.337,9.337,0,0,1-8.434,0L6.217,27.435c-2.325-1.343-2.326-3.527,0-4.87L24,12.3l5.5,3.176L13,25l2.75,1.588L28.033,19.5a9.331,9.331,0,0,1,8.434,0l5.316,3.07C44.108,23.908,44.109,26.092,41.783,27.435Z"/><path class="b" d="M41.783,27.335,24,37.6l-5.5-3.176L35,24.9l-2.75-1.588L19.967,30.406a9.337,9.337,0,0,1-8.434,0L6.217,27.335c-2.325-1.343-2.326-3.527,0-4.87L24,12.2l5.5,3.176L13,24.9l2.75,1.588L28.033,19.4a9.331,9.331,0,0,1,8.434,0l5.316,3.07C44.108,23.808,44.109,25.992,41.783,27.335Z"/><path class="b" d="M41.783,27.235,24,37.505l-5.5-3.176L35,24.8l-2.75-1.588L19.967,30.306a9.337,9.337,0,0,1-8.434,0L6.217,27.235c-2.325-1.343-2.326-3.527,0-4.87L24,12.1l5.5,3.176L13,24.8l2.75,1.588L28.033,19.3a9.331,9.331,0,0,1,8.434,0l5.316,3.07C44.108,23.708,44.109,25.892,41.783,27.235Z"/><path class="b" d="M41.783,27.135,24,37.405l-5.5-3.176L35,24.7l-2.75-1.588L19.967,30.206a9.337,9.337,0,0,1-8.434,0L6.217,27.135c-2.325-1.343-2.326-3.527,0-4.87L24,12l5.5,3.176L13,24.7l2.75,1.588L28.033,19.2a9.331,9.331,0,0,1,8.434,0l5.316,3.07C44.108,23.608,44.109,25.792,41.783,27.135Z"/><path class="b" d="M41.783,27.035,24,37.305l-5.5-3.176L35,24.6l-2.75-1.588L19.967,30.106a9.337,9.337,0,0,1-8.434,0L6.217,27.035c-2.325-1.343-2.326-3.527,0-4.87L24,11.9l5.5,3.176L13,24.6l2.75,1.588L28.033,19.1a9.331,9.331,0,0,1,8.434,0l5.316,3.07C44.108,23.508,44.109,25.692,41.783,27.035Z"/><path class="b" d="M41.783,26.935,24,37.205l-5.5-3.176L35,24.5l-2.75-1.588L19.967,30.006a9.337,9.337,0,0,1-8.434,0L6.217,26.935c-2.325-1.343-2.326-3.527,0-4.87L24,11.8l5.5,3.176L13,24.5l2.75,1.588L28.033,19a9.331,9.331,0,0,1,8.434,0l5.316,3.07C44.108,23.408,44.109,25.592,41.783,26.935Z"/><path class="b" d="M41.783,26.835,24,37.1l-5.5-3.176L35,24.4l-2.75-1.588L19.967,29.906a9.337,9.337,0,0,1-8.434,0L6.217,26.835c-2.325-1.343-2.326-3.527,0-4.87L24,11.7l5.5,3.176L13,24.4l2.75,1.588L28.033,18.9a9.331,9.331,0,0,1,8.434,0l5.316,3.07C44.108,23.308,44.109,25.492,41.783,26.835Z"/><path class="b" d="M41.783,26.735,24,37.005l-5.5-3.176L35,24.3l-2.75-1.588L19.967,29.806a9.337,9.337,0,0,1-8.434,0L6.217,26.735c-2.325-1.343-2.326-3.527,0-4.87L24,11.6l5.5,3.176L13,24.3l2.75,1.588L28.033,18.8a9.331,9.331,0,0,1,8.434,0l5.316,3.07C44.108,23.208,44.109,25.392,41.783,26.735Z"/><path class="b" d="M41.783,26.635,24,36.905l-5.5-3.176L35,24.2l-2.75-1.588L19.967,29.706a9.337,9.337,0,0,1-8.434,0L6.217,26.635c-2.325-1.343-2.326-3.527,0-4.87L24,11.5l5.5,3.176L13,24.2l2.75,1.588L28.033,18.7a9.331,9.331,0,0,1,8.434,0l5.316,3.07C44.108,23.108,44.109,25.292,41.783,26.635Z"/><path class="b" d="M41.783,26.535,24,36.805l-5.5-3.176L35,24.1l-2.75-1.588L19.967,29.606a9.337,9.337,0,0,1-8.434,0L6.217,26.535c-2.325-1.343-2.326-3.527,0-4.87L24,11.4l5.5,3.176L13,24.1l2.75,1.588L28.033,18.6a9.331,9.331,0,0,1,8.434,0l5.316,3.07C44.108,23.008,44.109,25.192,41.783,26.535Z"/><path class="b" d="M41.783,26.435,24,36.705l-5.5-3.176L35,24l-2.75-1.588L19.967,29.506a9.337,9.337,0,0,1-8.434,0L6.217,26.435c-2.325-1.343-2.326-3.527,0-4.87L24,11.3l5.5,3.176L13,24l2.75,1.588L28.033,18.5a9.331,9.331,0,0,1,8.434,0l5.316,3.07C44.108,22.908,44.109,25.092,41.783,26.435Z"/><path class="b" d="M41.783,26.335,24,36.6l-5.5-3.176L35,23.9l-2.75-1.588L19.967,29.406a9.337,9.337,0,0,1-8.434,0L6.217,26.335c-2.325-1.343-2.326-3.527,0-4.87L24,11.2l5.5,3.176L13,23.9l2.75,1.588L28.033,18.4a9.331,9.331,0,0,1,8.434,0l5.316,3.07C44.108,22.808,44.109,24.992,41.783,26.335Z"/><path class="b" d="M41.783,26.235,24,36.505l-5.5-3.176L35,23.8l-2.75-1.588L19.967,29.306a9.337,9.337,0,0,1-8.434,0L6.217,26.235c-2.325-1.343-2.326-3.527,0-4.87L24,11.1l5.5,3.176L13,23.8l2.75,1.588L28.033,18.3a9.331,9.331,0,0,1,8.434,0l5.316,3.07C44.108,22.708,44.109,24.892,41.783,26.235Z"/><path class="b" d="M41.783,26.135,24,36.405l-5.5-3.176L35,23.7l-2.75-1.588L19.967,29.206a9.337,9.337,0,0,1-8.434,0L6.217,26.135c-2.325-1.343-2.326-3.527,0-4.87L24,11l5.5,3.176L13,23.7l2.75,1.588L28.033,18.2a9.331,9.331,0,0,1,8.434,0l5.316,3.07C44.108,22.608,44.109,24.792,41.783,26.135Z"/><path class="b" d="M41.783,26.035,24,36.305l-5.5-3.176L35,23.6l-2.75-1.588L19.967,29.106a9.337,9.337,0,0,1-8.434,0L6.217,26.035c-2.325-1.343-2.326-3.527,0-4.87L24,10.9l5.5,3.176L13,23.6l2.75,1.588L28.033,18.1a9.331,9.331,0,0,1,8.434,0l5.316,3.07C44.108,22.508,44.109,24.692,41.783,26.035Z"/><path class="b" d="M41.783,25.935,24,36.205l-5.5-3.176L35,23.5l-2.75-1.588L19.967,29.006a9.337,9.337,0,0,1-8.434,0L6.217,25.935c-2.325-1.343-2.326-3.527,0-4.87L24,10.8l5.5,3.176L13,23.5l2.75,1.588L28.033,18a9.331,9.331,0,0,1,8.434,0l5.316,3.07C44.108,22.408,44.109,24.592,41.783,25.935Z"/><path class="b" d="M41.783,25.835,24,36.1l-5.5-3.176L35,23.4l-2.75-1.588L19.967,28.906a9.337,9.337,0,0,1-8.434,0L6.217,25.835c-2.325-1.343-2.326-3.527,0-4.87L24,10.7l5.5,3.176L13,23.4l2.75,1.588L28.033,17.9a9.331,9.331,0,0,1,8.434,0l5.316,3.07C44.108,22.308,44.109,24.492,41.783,25.835Z"/><path class="b" d="M41.783,25.735,24,36.005l-5.5-3.176L35,23.3l-2.75-1.588L19.967,28.806a9.337,9.337,0,0,1-8.434,0L6.217,25.735c-2.325-1.343-2.326-3.527,0-4.87L24,10.6l5.5,3.176L13,23.3l2.75,1.588L28.033,17.8a9.331,9.331,0,0,1,8.434,0l5.316,3.07C44.108,22.208,44.109,24.392,41.783,25.735Z"/><path class="b" d="M41.783,25.635,24,35.905l-5.5-3.176L35,23.2l-2.75-1.588L19.967,28.706a9.337,9.337,0,0,1-8.434,0L6.217,25.635c-2.325-1.343-2.326-3.527,0-4.87L24,10.5l5.5,3.176L13,23.2l2.75,1.588L28.033,17.7a9.331,9.331,0,0,1,8.434,0l5.316,3.07C44.108,22.108,44.109,24.292,41.783,25.635Z"/><path class="b" d="M41.783,25.535,24,35.805l-5.5-3.176L35,23.1l-2.75-1.588L19.967,28.606a9.337,9.337,0,0,1-8.434,0L6.217,25.535c-2.325-1.343-2.326-3.527,0-4.87L24,10.4l5.5,3.176L13,23.1l2.75,1.588L28.033,17.6a9.331,9.331,0,0,1,8.434,0l5.316,3.07C44.108,22.008,44.109,24.192,41.783,25.535Z"/><path class="b" d="M41.783,25.435,24,35.705l-5.5-3.176L35,23l-2.75-1.588L19.967,28.506a9.337,9.337,0,0,1-8.434,0L6.217,25.435c-2.325-1.343-2.326-3.527,0-4.87L24,10.3l5.5,3.176L13,23l2.75,1.588L28.033,17.5a9.331,9.331,0,0,1,8.434,0l5.316,3.07C44.108,21.908,44.109,24.092,41.783,25.435Z"/><path class="b" d="M41.783,25.335,24,35.6l-5.5-3.176L35,22.9l-2.75-1.588L19.967,28.406a9.337,9.337,0,0,1-8.434,0L6.217,25.335c-2.325-1.343-2.326-3.527,0-4.87L24,10.2l5.5,3.176L13,22.9l2.75,1.588L28.033,17.4a9.331,9.331,0,0,1,8.434,0l5.316,3.07C44.108,21.808,44.109,23.992,41.783,25.335Z"/><path class="b" d="M41.783,25.235,24,35.505l-5.5-3.176L35,22.8l-2.75-1.588L19.967,28.306a9.337,9.337,0,0,1-8.434,0L6.217,25.235c-2.325-1.343-2.326-3.527,0-4.87L24,10.1l5.5,3.176L13,22.8l2.75,1.588L28.033,17.3a9.331,9.331,0,0,1,8.434,0l5.316,3.07C44.108,21.708,44.109,23.892,41.783,25.235Z"/><path class="b" d="M41.783,25.135,24,35.405l-5.5-3.176L35,22.7l-2.75-1.588L19.967,28.206a9.337,9.337,0,0,1-8.434,0L6.217,25.135c-2.325-1.343-2.326-3.527,0-4.87L24,9.995l5.5,3.176L13,22.7l2.75,1.588L28.033,17.2a9.331,9.331,0,0,1,8.434,0l5.316,3.07C44.108,21.608,44.109,23.792,41.783,25.135Z"/><path class="b" d="M41.783,25.035,24,35.305l-5.5-3.176L35,22.6l-2.75-1.588L19.967,28.106a9.337,9.337,0,0,1-8.434,0L6.217,25.035c-2.325-1.343-2.326-3.527,0-4.87L24,9.9l5.5,3.176L13,22.6l2.75,1.588L28.033,17.1a9.331,9.331,0,0,1,8.434,0l5.316,3.07C44.108,21.508,44.109,23.692,41.783,25.035Z"/><path class="b" d="M41.783,24.935,24,35.205l-5.5-3.176L35,22.5l-2.75-1.588L19.967,28.006a9.337,9.337,0,0,1-8.434,0L6.217,24.935c-2.325-1.343-2.326-3.527,0-4.87L24,9.8l5.5,3.176L13,22.5l2.75,1.588L28.033,17a9.331,9.331,0,0,1,8.434,0l5.316,3.07C44.108,21.408,44.109,23.592,41.783,24.935Z"/><path class="b" d="M41.783,24.835,24,35.1l-5.5-3.176L35,22.4l-2.75-1.588L19.967,27.906a9.337,9.337,0,0,1-8.434,0L6.217,24.835c-2.325-1.343-2.326-3.527,0-4.87L24,9.7l5.5,3.176L13,22.4l2.75,1.588L28.033,16.9a9.331,9.331,0,0,1,8.434,0l5.316,3.07C44.108,21.308,44.109,23.492,41.783,24.835Z"/><path class="b" d="M41.783,24.735,24,35.005l-5.5-3.176L35,22.3l-2.75-1.588L19.967,27.806a9.337,9.337,0,0,1-8.434,0L6.217,24.735c-2.325-1.343-2.326-3.527,0-4.87L24,9.6l5.5,3.176L13,22.3l2.75,1.588L28.033,16.8a9.331,9.331,0,0,1,8.434,0l5.316,3.07C44.108,21.208,44.109,23.392,41.783,24.735Z"/><path class="b" d="M41.783,24.635,24,34.905l-5.5-3.176L35,22.2l-2.75-1.588L19.967,27.706a9.337,9.337,0,0,1-8.434,0L6.217,24.635c-2.325-1.343-2.326-3.527,0-4.87L24,9.495l5.5,3.176L13,22.2l2.75,1.588L28.033,16.7a9.331,9.331,0,0,1,8.434,0l5.316,3.07C44.108,21.108,44.109,23.292,41.783,24.635Z"/><path class="b" d="M41.783,24.535,24,34.805l-5.5-3.176L35,22.1l-2.75-1.588L19.967,27.606a9.337,9.337,0,0,1-8.434,0L6.217,24.535c-2.325-1.343-2.326-3.527,0-4.87L24,9.4l5.5,3.176L13,22.1l2.75,1.588L28.033,16.6a9.331,9.331,0,0,1,8.434,0l5.316,3.07C44.108,21.008,44.109,23.192,41.783,24.535Z"/><path class="b" d="M41.783,24.435,24,34.705l-5.5-3.176L35,22l-2.75-1.588L19.967,27.506a9.337,9.337,0,0,1-8.434,0L6.217,24.435c-2.325-1.343-2.326-3.527,0-4.87L24,9.3l5.5,3.176L13,22l2.75,1.588,12.283-7.094a9.337,9.337,0,0,1,8.434,0l5.316,3.071C44.108,20.908,44.109,23.092,41.783,24.435Z"/><path class="c" d="M41.783,24.435,24,34.705l-5.5-3.176L35,22l-2.75-1.588L19.967,27.506a9.337,9.337,0,0,1-8.434,0L6.217,24.435c-2.325-1.343-2.326-3.527,0-4.87L24,9.3l5.5,3.176L13,22l2.75,1.588,12.283-7.094a9.337,9.337,0,0,1,8.434,0l5.316,3.071C44.108,20.908,44.109,23.092,41.783,24.435Z"/></svg>