<svg viewBox="0 0 48 48" xmlns="http://www.w3.org/2000/svg"><g fill="#00734b"><path d="m45.092 29.888-21.092 12.181-6.523-3.769 19.57-11.3-3.262-1.884-14.569 8.414a11.067 11.067 0 0 1 -10 0l-6.308-3.642c-2.758-1.588-2.758-4.183 0-5.776l21.092-12.181 6.523 3.769-19.57 11.3 3.262 1.884 14.569-8.414a11.067 11.067 0 0 1 10 0l6.306 3.642c2.76 1.588 2.76 4.188.002 5.776z"/><path d="m45.092 29.788-21.092 12.181-6.523-3.769 19.57-11.3-3.262-1.884-14.569 8.414a11.067 11.067 0 0 1 -10 0l-6.308-3.642c-2.758-1.588-2.758-4.183 0-5.776l21.092-12.181 6.523 3.769-19.57 11.3 3.262 1.884 14.569-8.414a11.067 11.067 0 0 1 10 0l6.306 3.642c2.76 1.588 2.76 4.188.002 5.776z"/><path d="m45.092 29.688-21.092 12.181-6.523-3.769 19.57-11.3-3.262-1.884-14.569 8.414a11.067 11.067 0 0 1 -10 0l-6.308-3.642c-2.758-1.588-2.758-4.183 0-5.776l21.092-12.181 6.523 3.769-19.57 11.3 3.262 1.884 14.569-8.414a11.067 11.067 0 0 1 10 0l6.306 3.642c2.76 1.588 2.76 4.188.002 5.776z"/><path d="m45.092 29.588-21.092 12.181-6.523-3.769 19.57-11.3-3.262-1.884-14.569 8.414a11.067 11.067 0 0 1 -10 0l-6.308-3.642c-2.758-1.588-2.758-4.183 0-5.776l21.092-12.181 6.523 3.769-19.57 11.3 3.262 1.884 14.569-8.414a11.067 11.067 0 0 1 10 0l6.306 3.642c2.76 1.588 2.76 4.188.002 5.776z"/><path d="m45.092 29.488-21.092 12.181-6.523-3.769 19.57-11.3-3.262-1.884-14.569 8.414a11.067 11.067 0 0 1 -10 0l-6.308-3.642c-2.758-1.588-2.758-4.183 0-5.776l21.092-12.181 6.523 3.769-19.57 11.3 3.262 1.884 14.569-8.414a11.067 11.067 0 0 1 10 0l6.306 3.642c2.76 1.588 2.76 4.188.002 5.776z"/><path d="m45.092 29.388-21.092 12.181-6.523-3.769 19.57-11.3-3.262-1.884-14.569 8.414a11.067 11.067 0 0 1 -10 0l-6.308-3.642c-2.758-1.588-2.758-4.183 0-5.776l21.092-12.181 6.523 3.769-19.57 11.3 3.262 1.884 14.569-8.414a11.067 11.067 0 0 1 10 0l6.306 3.642c2.76 1.588 2.76 4.188.002 5.776z"/><path d="m45.092 29.288-21.092 12.181-6.523-3.769 19.57-11.3-3.262-1.884-14.569 8.414a11.067 11.067 0 0 1 -10 0l-6.308-3.642c-2.758-1.588-2.758-4.183 0-5.776l21.092-12.181 6.523 3.769-19.57 11.3 3.262 1.884 14.569-8.414a11.067 11.067 0 0 1 10 0l6.306 3.642c2.76 1.588 2.76 4.188.002 5.776z"/><path d="m45.092 29.188-21.092 12.181-6.523-3.769 19.57-11.3-3.262-1.884-14.569 8.414a11.067 11.067 0 0 1 -10 0l-6.308-3.642c-2.758-1.588-2.758-4.183 0-5.776l21.092-12.181 6.523 3.769-19.57 11.3 3.262 1.884 14.569-8.414a11.067 11.067 0 0 1 10 0l6.306 3.642c2.76 1.588 2.76 4.188.002 5.776z"/><path d="m45.092 29.088-21.092 12.181-6.523-3.769 19.57-11.3-3.262-1.884-14.569 8.414a11.067 11.067 0 0 1 -10 0l-6.308-3.642c-2.758-1.588-2.758-4.183 0-5.776l21.092-12.181 6.523 3.769-19.57 11.3 3.262 1.884 14.569-8.414a11.067 11.067 0 0 1 10 0l6.306 3.642c2.76 1.588 2.76 4.188.002 5.776z"/><path d="m45.092 28.988-21.092 12.181-6.523-3.769 19.57-11.3-3.262-1.884-14.569 8.414a11.067 11.067 0 0 1 -10 0l-6.308-3.642c-2.758-1.588-2.758-4.183 0-5.776l21.092-12.181 6.523 3.769-19.57 11.3 3.262 1.884 14.569-8.414a11.067 11.067 0 0 1 10 0l6.306 3.642c2.76 1.588 2.76 4.188.002 5.776z"/><path d="m45.092 28.888-21.092 12.181-6.523-3.769 19.57-11.3-3.262-1.884-14.569 8.414a11.067 11.067 0 0 1 -10 0l-6.308-3.642c-2.758-1.588-2.758-4.183 0-5.776l21.092-12.181 6.523 3.769-19.57 11.3 3.262 1.884 14.569-8.414a11.067 11.067 0 0 1 10 0l6.306 3.642c2.76 1.588 2.76 4.188.002 5.776z"/><path d="m45.092 28.788-21.092 12.181-6.523-3.769 19.57-11.3-3.262-1.884-14.569 8.414a11.067 11.067 0 0 1 -10 0l-6.308-3.642c-2.758-1.588-2.758-4.183 0-5.776l21.092-12.181 6.523 3.769-19.57 11.3 3.262 1.884 14.569-8.414a11.067 11.067 0 0 1 10 0l6.306 3.642c2.76 1.588 2.76 4.188.002 5.776z"/><path d="m45.092 28.688-21.092 12.181-6.523-3.769 19.57-11.3-3.262-1.884-14.569 8.414a11.067 11.067 0 0 1 -10 0l-6.308-3.642c-2.758-1.588-2.758-4.183 0-5.776l21.092-12.181 6.523 3.769-19.57 11.3 3.262 1.884 14.569-8.414a11.067 11.067 0 0 1 10 0l6.306 3.642c2.76 1.588 2.76 4.188.002 5.776z"/><path d="m45.092 28.588-21.092 12.181-6.523-3.769 19.57-11.3-3.262-1.884-14.569 8.414a11.067 11.067 0 0 1 -10 0l-6.308-3.642c-2.758-1.588-2.758-4.183 0-5.776l21.092-12.181 6.523 3.769-19.57 11.3 3.262 1.884 14.569-8.414a11.067 11.067 0 0 1 10 0l6.306 3.642c2.76 1.588 2.76 4.188.002 5.776z"/><path d="m45.092 28.488-21.092 12.181-6.523-3.769 19.57-11.3-3.262-1.884-14.569 8.414a11.067 11.067 0 0 1 -10 0l-6.308-3.642c-2.758-1.588-2.758-4.183 0-5.776l21.092-12.181 6.523 3.769-19.57 11.3 3.262 1.884 14.569-8.414a11.067 11.067 0 0 1 10 0l6.306 3.642c2.76 1.588 2.76 4.188.002 5.776z"/><path d="m45.092 28.388-21.092 12.181-6.523-3.769 19.57-11.3-3.262-1.884-14.569 8.414a11.067 11.067 0 0 1 -10 0l-6.308-3.642c-2.758-1.588-2.758-4.183 0-5.776l21.092-12.181 6.523 3.769-19.57 11.3 3.262 1.884 14.569-8.414a11.067 11.067 0 0 1 10 0l6.306 3.642c2.76 1.588 2.76 4.188.002 5.776z"/><path d="m45.092 28.288-21.092 12.181-6.523-3.769 19.57-11.3-3.262-1.884-14.569 8.414a11.067 11.067 0 0 1 -10 0l-6.308-3.642c-2.758-1.588-2.758-4.183 0-5.776l21.092-12.181 6.523 3.769-19.57 11.3 3.262 1.884 14.569-8.414a11.067 11.067 0 0 1 10 0l6.306 3.642c2.76 1.588 2.76 4.188.002 5.776z"/><path d="m45.092 28.188-21.092 12.181-6.523-3.769 19.57-11.3-3.262-1.884-14.569 8.414a11.067 11.067 0 0 1 -10 0l-6.308-3.642c-2.758-1.588-2.758-4.183 0-5.776l21.092-12.181 6.523 3.769-19.57 11.3 3.262 1.884 14.569-8.414a11.067 11.067 0 0 1 10 0l6.306 3.642c2.76 1.588 2.76 4.188.002 5.776z"/><path d="m45.092 28.088-21.092 12.181-6.523-3.769 19.57-11.3-3.262-1.884-14.569 8.414a11.067 11.067 0 0 1 -10 0l-6.308-3.642c-2.758-1.588-2.758-4.183 0-5.776l21.092-12.181 6.523 3.769-19.57 11.3 3.262 1.884 14.569-8.414a11.067 11.067 0 0 1 10 0l6.306 3.642c2.76 1.588 2.76 4.188.002 5.776z"/><path d="m45.092 27.988-21.092 12.181-6.523-3.769 19.57-11.3-3.262-1.884-14.569 8.414a11.067 11.067 0 0 1 -10 0l-6.308-3.642c-2.758-1.588-2.758-4.183 0-5.776l21.092-12.181 6.523 3.769-19.57 11.3 3.262 1.884 14.569-8.414a11.067 11.067 0 0 1 10 0l6.306 3.642c2.76 1.588 2.76 4.188.002 5.776z"/><path d="m45.092 27.888-21.092 12.181-6.523-3.769 19.57-11.3-3.262-1.884-14.569 8.414a11.067 11.067 0 0 1 -10 0l-6.308-3.642c-2.758-1.588-2.758-4.183 0-5.776l21.092-12.181 6.523 3.769-19.57 11.3 3.262 1.884 14.569-8.414a11.067 11.067 0 0 1 10 0l6.306 3.642c2.76 1.588 2.76 4.188.002 5.776z"/><path d="m45.092 27.788-21.092 12.181-6.523-3.769 19.57-11.3-3.262-1.884-14.569 8.414a11.067 11.067 0 0 1 -10 0l-6.308-3.642c-2.758-1.588-2.758-4.183 0-5.776l21.092-12.181 6.523 3.769-19.57 11.3 3.262 1.884 14.569-8.414a11.067 11.067 0 0 1 10 0l6.306 3.642c2.76 1.588 2.76 4.188.002 5.776z"/><path d="m45.092 27.688-21.092 12.181-6.523-3.769 19.57-11.3-3.262-1.884-14.569 8.414a11.067 11.067 0 0 1 -10 0l-6.308-3.642c-2.758-1.588-2.758-4.183 0-5.776l21.092-12.181 6.523 3.769-19.57 11.3 3.262 1.884 14.569-8.414a11.067 11.067 0 0 1 10 0l6.306 3.642c2.76 1.588 2.76 4.188.002 5.776z"/><path d="m45.092 27.588-21.092 12.181-6.523-3.769 19.57-11.3-3.262-1.884-14.569 8.414a11.067 11.067 0 0 1 -10 0l-6.308-3.642c-2.758-1.588-2.758-4.183 0-5.776l21.092-12.181 6.523 3.769-19.57 11.3 3.262 1.884 14.569-8.414a11.067 11.067 0 0 1 10 0l6.306 3.642c2.76 1.588 2.76 4.188.002 5.776z"/><path d="m45.092 27.488-21.092 12.181-6.523-3.769 19.57-11.3-3.262-1.884-14.569 8.414a11.067 11.067 0 0 1 -10 0l-6.308-3.642c-2.758-1.588-2.758-4.183 0-5.776l21.092-12.181 6.523 3.769-19.57 11.3 3.262 1.884 14.569-8.414a11.067 11.067 0 0 1 10 0l6.306 3.642c2.76 1.588 2.76 4.188.002 5.776z"/><path d="m45.092 27.388-21.092 12.181-6.523-3.769 19.57-11.3-3.262-1.884-14.569 8.414a11.067 11.067 0 0 1 -10 0l-6.308-3.642c-2.758-1.588-2.758-4.183 0-5.776l21.092-12.181 6.523 3.769-19.57 11.3 3.262 1.884 14.569-8.414a11.067 11.067 0 0 1 10 0l6.306 3.642c2.76 1.588 2.76 4.188.002 5.776z"/><path d="m45.092 27.288-21.092 12.181-6.523-3.769 19.57-11.3-3.262-1.884-14.569 8.414a11.067 11.067 0 0 1 -10 0l-6.308-3.642c-2.758-1.588-2.758-4.183 0-5.776l21.092-12.181 6.523 3.769-19.57 11.3 3.262 1.884 14.569-8.414a11.067 11.067 0 0 1 10 0l6.306 3.642c2.76 1.588 2.76 4.188.002 5.776z"/><path d="m45.092 27.188-21.092 12.181-6.523-3.769 19.57-11.3-3.262-1.884-14.569 8.414a11.067 11.067 0 0 1 -10 0l-6.308-3.642c-2.758-1.588-2.758-4.183 0-5.776l21.092-12.181 6.523 3.769-19.57 11.3 3.262 1.884 14.569-8.414a11.067 11.067 0 0 1 10 0l6.306 3.642c2.76 1.588 2.76 4.188.002 5.776z"/><path d="m45.092 27.088-21.092 12.181-6.523-3.769 19.57-11.3-3.262-1.884-14.569 8.414a11.067 11.067 0 0 1 -10 0l-6.308-3.642c-2.758-1.588-2.758-4.183 0-5.776l21.092-12.181 6.523 3.769-19.57 11.3 3.262 1.884 14.569-8.414a11.067 11.067 0 0 1 10 0l6.306 3.642c2.76 1.588 2.76 4.188.002 5.776z"/><path d="m45.092 26.988-21.092 12.181-6.523-3.769 19.57-11.3-3.262-1.884-14.569 8.414a11.067 11.067 0 0 1 -10 0l-6.308-3.642c-2.758-1.588-2.758-4.183 0-5.776l21.092-12.181 6.523 3.769-19.57 11.3 3.262 1.884 14.569-8.414a11.067 11.067 0 0 1 10 0l6.306 3.642c2.76 1.588 2.76 4.188.002 5.776z"/><path d="m45.092 26.888-21.092 12.181-6.523-3.769 19.57-11.3-3.262-1.884-14.569 8.414a11.067 11.067 0 0 1 -10 0l-6.308-3.642c-2.758-1.588-2.758-4.183 0-5.776l21.092-12.181 6.523 3.769-19.57 11.3 3.262 1.884 14.569-8.414a11.067 11.067 0 0 1 10 0l6.306 3.642c2.76 1.588 2.76 4.188.002 5.776z"/><path d="m45.092 26.788-21.092 12.181-6.523-3.769 19.57-11.3-3.262-1.884-14.569 8.414a11.067 11.067 0 0 1 -10 0l-6.308-3.642c-2.758-1.588-2.758-4.183 0-5.776l21.092-12.181 6.523 3.769-19.57 11.3 3.262 1.884 14.569-8.414a11.067 11.067 0 0 1 10 0l6.306 3.642c2.76 1.588 2.76 4.188.002 5.776z"/><path d="m45.092 26.688-21.092 12.181-6.523-3.769 19.57-11.3-3.262-1.884-14.569 8.414a11.067 11.067 0 0 1 -10 0l-6.308-3.642c-2.758-1.588-2.758-4.183 0-5.776l21.092-12.181 6.523 3.769-19.57 11.3 3.262 1.884 14.569-8.414a11.067 11.067 0 0 1 10 0l6.306 3.642c2.76 1.588 2.76 4.188.002 5.776z"/><path d="m45.092 26.588-21.092 12.181-6.523-3.769 19.57-11.3-3.262-1.884-14.569 8.414a11.067 11.067 0 0 1 -10 0l-6.308-3.642c-2.758-1.588-2.758-4.183 0-5.776l21.092-12.181 6.523 3.769-19.57 11.3 3.262 1.884 14.569-8.414a11.067 11.067 0 0 1 10 0l6.306 3.642c2.76 1.588 2.76 4.188.002 5.776z"/><path d="m45.092 26.488-21.092 12.181-6.523-3.769 19.57-11.3-3.262-1.884-14.569 8.414a11.067 11.067 0 0 1 -10 0l-6.308-3.642c-2.758-1.588-2.758-4.183 0-5.776l21.092-12.181 6.523 3.769-19.57 11.3 3.262 1.884 14.569-8.414a11.067 11.067 0 0 1 10 0l6.306 3.642c2.76 1.588 2.76 4.188.002 5.776z"/><path d="m45.092 26.388-21.092 12.181-6.523-3.769 19.57-11.3-3.262-1.884-14.569 8.414a11.067 11.067 0 0 1 -10 0l-6.308-3.642c-2.758-1.588-2.758-4.183 0-5.776l21.092-12.181 6.523 3.769-19.57 11.3 3.262 1.884 14.569-8.414a11.067 11.067 0 0 1 10 0l6.306 3.642c2.76 1.588 2.76 4.188.002 5.776z"/><path d="m45.092 26.288-21.092 12.181-6.523-3.769 19.57-11.3-3.262-1.884-14.569 8.414a11.067 11.067 0 0 1 -10 0l-6.308-3.642c-2.758-1.588-2.758-4.183 0-5.776l21.092-12.181 6.523 3.769-19.57 11.3 3.262 1.884 14.569-8.414a11.067 11.067 0 0 1 10 0l6.306 3.642c2.76 1.588 2.76 4.188.002 5.776z"/><path d="m45.092 26.188-21.092 12.181-6.523-3.769 19.57-11.3-3.262-1.884-14.569 8.414a11.067 11.067 0 0 1 -10 0l-6.308-3.642c-2.758-1.588-2.758-4.183 0-5.776l21.092-12.181 6.523 3.769-19.57 11.3 3.262 1.884 14.569-8.414a11.067 11.067 0 0 1 10 0l6.306 3.642c2.76 1.588 2.76 4.188.002 5.776z"/><path d="m45.092 26.088-21.092 12.181-6.523-3.769 19.57-11.3-3.262-1.884-14.569 8.414a11.067 11.067 0 0 1 -10 0l-6.308-3.642c-2.758-1.588-2.758-4.183 0-5.776l21.092-12.181 6.523 3.769-19.57 11.3 3.262 1.884 14.569-8.414a11.067 11.067 0 0 1 10 0l6.306 3.642c2.76 1.588 2.76 4.188.002 5.776z"/><path d="m45.092 25.988-21.092 12.181-6.523-3.769 19.57-11.3-3.262-1.884-14.569 8.414a11.067 11.067 0 0 1 -10 0l-6.308-3.642c-2.758-1.588-2.758-4.183 0-5.776l21.092-12.181 6.523 3.769-19.57 11.3 3.262 1.884 14.569-8.414a11.067 11.067 0 0 1 10 0l6.306 3.642c2.76 1.588 2.76 4.188.002 5.776z"/><path d="m45.092 25.888-21.092 12.181-6.523-3.769 19.57-11.3-3.262-1.884-14.569 8.414a11.067 11.067 0 0 1 -10 0l-6.308-3.642c-2.758-1.588-2.758-4.183 0-5.776l21.092-12.181 6.523 3.769-19.57 11.3 3.262 1.884 14.569-8.414a11.067 11.067 0 0 1 10 0l6.306 3.642c2.76 1.588 2.76 4.188.002 5.776z"/><path d="m45.092 25.788-21.092 12.181-6.523-3.769 19.57-11.3-3.262-1.884-14.569 8.414a11.067 11.067 0 0 1 -10 0l-6.308-3.642c-2.758-1.588-2.758-4.183 0-5.776l21.092-12.181 6.523 3.769-19.57 11.3 3.262 1.884 14.569-8.414a11.067 11.067 0 0 1 10 0l6.306 3.642c2.76 1.588 2.76 4.188.002 5.776z"/><path d="m45.092 25.688-21.092 12.181-6.523-3.769 19.57-11.3-3.262-1.884-14.569 8.414a11.067 11.067 0 0 1 -10 0l-6.308-3.642c-2.758-1.588-2.758-4.183 0-5.776l21.092-12.181 6.523 3.769-19.57 11.3 3.262 1.884 14.569-8.414a11.067 11.067 0 0 1 10 0l6.306 3.642c2.76 1.588 2.76 4.188.002 5.776z"/><path d="m45.092 25.588-21.092 12.181-6.523-3.769 19.57-11.3-3.262-1.884-14.569 8.414a11.067 11.067 0 0 1 -10 0l-6.308-3.642c-2.758-1.588-2.758-4.183 0-5.776l21.092-12.181 6.523 3.769-19.57 11.3 3.262 1.884 14.569-8.414a11.067 11.067 0 0 1 10 0l6.306 3.642c2.76 1.588 2.76 4.188.002 5.776z"/><path d="m45.092 25.488-21.092 12.181-6.523-3.769 19.57-11.3-3.262-1.884-14.569 8.414a11.067 11.067 0 0 1 -10 0l-6.308-3.642c-2.758-1.588-2.758-4.183 0-5.776l21.092-12.181 6.523 3.769-19.57 11.3 3.262 1.884 14.569-8.414a11.067 11.067 0 0 1 10 0l6.306 3.642c2.76 1.588 2.76 4.188.002 5.776z"/><path d="m45.092 25.388-21.092 12.181-6.523-3.769 19.57-11.3-3.262-1.884-14.569 8.414a11.067 11.067 0 0 1 -10 0l-6.308-3.642c-2.758-1.588-2.758-4.183 0-5.776l21.092-12.181 6.523 3.769-19.57 11.3 3.262 1.884 14.569-8.414a11.067 11.067 0 0 1 10 0l6.306 3.642c2.76 1.588 2.76 4.188.002 5.776z"/><path d="m45.092 25.288-21.092 12.181-6.523-3.769 19.57-11.3-3.262-1.884-14.569 8.414a11.067 11.067 0 0 1 -10 0l-6.308-3.642c-2.758-1.588-2.758-4.183 0-5.776l21.092-12.181 6.523 3.769-19.57 11.3 3.262 1.884 14.569-8.414a11.067 11.067 0 0 1 10 0l6.306 3.642c2.76 1.588 2.76 4.188.002 5.776z"/><path d="m45.092 25.188-21.092 12.181-6.523-3.769 19.57-11.3-3.262-1.884-14.569 8.414a11.067 11.067 0 0 1 -10 0l-6.308-3.642c-2.758-1.588-2.758-4.183 0-5.776l21.092-12.181 6.523 3.769-19.57 11.3 3.262 1.884 14.569-8.414a11.067 11.067 0 0 1 10 0l6.306 3.642c2.76 1.588 2.76 4.188.002 5.776z"/><path d="m45.092 25.088-21.092 12.181-6.523-3.769 19.57-11.3-3.262-1.884-14.569 8.414a11.067 11.067 0 0 1 -10 0l-6.308-3.642c-2.758-1.588-2.758-4.183 0-5.776l21.092-12.181 6.523 3.769-19.57 11.3 3.262 1.884 14.569-8.414a11.067 11.067 0 0 1 10 0l6.306 3.642c2.76 1.588 2.76 4.188.002 5.776z"/><path d="m45.092 24.988-21.092 12.181-6.523-3.769 19.57-11.3-3.262-1.884-14.569 8.414a11.067 11.067 0 0 1 -10 0l-6.308-3.642c-2.758-1.588-2.758-4.183 0-5.776l21.092-12.181 6.523 3.769-19.57 11.3 3.262 1.884 14.569-8.414a11.067 11.067 0 0 1 10 0l6.306 3.642c2.76 1.588 2.76 4.188.002 5.776z"/><path d="m45.092 24.888-21.092 12.181-6.523-3.769 19.57-11.3-3.262-1.884-14.569 8.414a11.067 11.067 0 0 1 -10 0l-6.308-3.642c-2.758-1.588-2.758-4.183 0-5.776l21.092-12.181 6.523 3.769-19.57 11.3 3.262 1.884 14.569-8.414a11.067 11.067 0 0 1 10 0l6.306 3.642c2.76 1.588 2.76 4.188.002 5.776z"/></g><path d="m45.092 24.888-21.092 12.181-6.523-3.769 19.57-11.3-3.262-1.884-14.569 8.414a11.067 11.067 0 0 1 -10 0l-6.308-3.642c-2.758-1.588-2.758-4.183 0-5.776l21.092-12.181 6.523 3.769-19.57 11.3 3.262 1.884 14.569-8.414a11.067 11.067 0 0 1 10 0l6.306 3.642c2.76 1.588 2.76 4.188.002 5.776z" fill="#00ff87"/></svg>