<svg viewBox="0 0 1024 1024" xmlns="http://www.w3.org/2000/svg"><path d="m885.23 1024h-746.46c-100.129 0-138.77-38.641-138.77-138.77v-746.46c0-100.129 38.641-138.77 138.77-138.77h746.46c100.129 0 138.77 38.641 138.77 138.77v746.46c0 100.129-38.641 138.77-138.77 138.77z" fill="#0a1e3c"/><path d="m563.114 700.6c4.475-2.884 10.145-6.746 5.913-12.887-3.949-5.731-19.672-15.375-41.861-28.19l-371.6-214.6 99.293-57.345 472.89 273.088-40.879 23.6-426.318-246.195-17.52 10.12 335.174 193.551c56.091 32.392 85.989 57.7 34.45 87.46zm-243.079-353.364c-4.9 2.83-48.849 29.11 33.213 76.5l311.879 180.108c82.061 47.392 127.568 22.011 132.465 19.188s48.85-29.11-33.212-76.5l-311.88-180.114c-82.061-47.392-127.565-22.011-132.465-19.182zm412.9 228.332c5.592 3.231 12.044 7.247 14.427 10.325 2.912 3.757 1.789 5.726-1.184 7.442s-6.4 2.366-12.89.684a82.9 82.9 0 0 1 -17.875-8.343l-330.722-190.982c-5.592-3.231-12.044-7.247-14.43-10.325-2.911-3.757-1.785-5.726 1.188-7.442s6.382-2.366 12.886-.684a82.9 82.9 0 0 1 17.879 8.343zm-379.02 58.921 138.485 79.985c5.59 3.229 12.042 7.23 14.428 10.323 2.911 3.757 1.788 5.726-1.188 7.441s-6.4 2.367-12.887.687a82.891 82.891 0 0 1 -17.875-8.342l-330.716-190.983c-5.592-3.229-12.041-7.247-14.427-10.325-2.912-3.755-1.788-5.726 1.185-7.442s6.4-2.367 12.889-.684a82.921 82.921 0 0 1 17.876 8.342l144.36 83.369 40.865-23.6-134.935-77.938c-82.062-47.392-127.566-22.022-132.461-19.18s-48.849 29.108 33.213 76.5l311.873 180.119c82.062 47.39 127.566 22.008 132.466 19.189s48.849-29.108-33.212-76.5l-129.073-74.529zm109.231-367.2 256.317 185.437-288.709-166.726-40.86 23.6 472.88 273.088 40.86-23.6-256.316-185.439 288.708 166.729 40.86-23.6-472.88-273.084zm26.781-31.727-114.112 65.9-32.331-18.671 114.112-65.9z" fill="#00ff87"/></svg>