<svg xmlns="http://www.w3.org/2000/svg" viewBox="0 0 1024 1024"><defs><style>.a{fill:#0a1e3c;}.b{fill:#00ff87;}</style></defs><path class="a" d="M885.23,1024H138.77C38.641,1024,0,985.359,0,885.23V138.77C0,38.641,38.641,0,138.77,0H885.23C985.359,0,1024,38.641,1024,138.77V885.23C1024,985.359,985.359,1024,885.23,1024Z"/><path class="b" d="M660.687,700.558l-474.632-274.1,46.882-27.075,421.821,243.6,28.117-16.237,52.812,30.5Zm-461.244-189.2,57.83,33.34,46.9-27.082L246.389,484.25h0c-81.957-47.071-135.135-17.347-140.749-14.1s-57.1,33.96,24.452,81.3l.031-.017C192.833,588.748,249.054,606.4,318.9,623.842l.045-.026c92.966,23.391,115.5,24.953,193.2,69.856l-.083.048,8.848,5.11c5.65,3.263,12.154,7.263,14.4,10.52,2.572,3.933-.07,6.812-3.46,8.77a20.136,20.136,0,0,1-15.08,1.937c-5.64-1.3-12.673-4.993-18.323-8.256l-8.819-5.093.011-.007-78.737-45.414-46.9,27.082L442.7,733.812h0c81.958,47.071,135.136,17.347,140.75,14.105s57.1-33.96-24.452-81.3l-.031.017c-62.713-37.319-118.933-54.971-188.775-72.413l-.046.026c-92.965-23.391-115.5-24.953-193.2-69.856l.083-.048-8.848-5.11c-5.65-3.263-12.154-7.263-14.4-10.52-2.571-3.933.07-6.812,3.461-8.77a20.14,20.14,0,0,1,15.08-1.937c5.64,1.3,12.673,4.994,18.323,8.257l8.819,5.092ZM673.821,392.346,442.967,278.2,396.14,305.246,711.123,440.931l199.47,115.194,46.827-27.043L757.95,413.888,523,231.985l-46.827,27.043ZM470.48,355.525,783.514,536.3c82.367,47.567,30.635,78.343,25.016,81.588s-58.911,33.12-141.278-14.447L354.219,422.666c-82.367-47.566-30.635-78.343-25.016-81.588S388.114,307.958,470.48,355.525Zm-56.33,21.606c-5.613-3.242-12.631-6.96-18.191-8.221-6.786-1.539-11.744,0-15.154,1.969s-6.074,4.832-3.409,8.751c2.183,3.211,8.622,7.264,14.235,10.5l331.952,191.7c5.613,3.241,12.63,6.96,18.191,8.22,6.785,1.539,11.744,0,15.154-1.968s6.074-4.833,3.408-8.752c-2.182-3.211-8.621-7.263-14.235-10.5Z"/></svg>