<svg fill="none" height="37" viewBox="0 0 56 37" width="56" xmlns="http://www.w3.org/2000/svg"><g fill="#fff"><path d="m30.939 30.4028c.2644-.1788.5997-.4181.3496-.7983-.2335-.3554-1.1631-.9532-2.4748-1.7475l-21.96682-13.3033 5.86952-3.5545 27.9536 16.9283-2.4154 1.4627-25.2004-15.261-1.036.6272 19.8135 11.9987c3.3158 2.0081 5.0831 3.5765 2.0364 5.4216z"/><path d="m16.571 8.49844c-.2896.17538-2.8877 1.80446 1.9633 4.74216l18.4361 11.1647c4.8511 2.9377 7.5411 1.3643 7.8306 1.1889s2.8877-1.8044-1.9633-4.7421l-18.4362-11.16468c-4.8509-2.93769-7.5409-1.36436-7.8305-1.18898zm24.4081 14.15406c.3306.2001.712.4492.853.6399.1721.2328.1056.3549-.0701.4614-.1758.1065-.3774.1467-.7619.0424-.315-.0854-.7262-.3163-1.0567-.5165l-19.5501-11.8395c-.3306-.2002-.7119-.4491-.8529-.6399-.1722-.2329-.1057-.355.0701-.4614s.3773-.1466.7618-.0425c.3151.0855.7262.3164 1.0568.5166z"/><path d="m18.5726 26.3047 8.1871 4.958c.3306.2002.7119.4491.8529.64.1721.2328.1056.3548-.0701.4613s-.3774.1467-.7618.0424c-.3151-.0853-.7262-.3162-1.0568-.5165l-19.5504-11.8394c-.33056-.2002-.71191-.4492-.85287-.64-.17211-.2328-.10564-.3549.07009-.4613.17572-.1064.37734-.1467.76183-.0424.31511.0853.7262.3163 1.05677.5164l8.53358 5.1679 2.4157-1.463-7.9765-4.8304c-4.85095-2.9381-7.54095-1.3643-7.83055-1.189s-2.887618 1.8044 1.9634 4.7421l18.43615 11.1647c4.851 2.9381 7.541 1.3643 7.8305 1.189s2.8877-1.8044-1.9633-4.7421l-7.63-4.6206z"/><path d="m25.0295 3.54323 15.1517 11.49487-17.0666-10.33526-2.4153 1.46271 27.9535 16.92835 2.4154-1.4627-15.1517-11.4949 17.0666 10.3352 2.4153-1.4627-27.9535-16.92829z"/><path d="m26.6118 1.5756-6.7456 4.08512-1.9112-1.15747 6.7456-4.085037z"/></g></svg>